<?xml version="1.0" encoding="utf-8"?>
<!-- Generator: Adobe Illustrator 16.0.0, SVG Export Plug-In . SVG Version: 6.00 Build 0)  -->
<!DOCTYPE svg PUBLIC "-//W3C//DTD SVG 1.1//EN" "http://www.w3.org/Graphics/SVG/1.1/DTD/svg11.dtd">
<svg version="1.1" id="Layer_1" xmlns="http://www.w3.org/2000/svg" xmlns:xlink="http://www.w3.org/1999/xlink" x="0px" y="0px"
	 width="50px" height="50px" viewBox="0 0 50 50" enable-background="new 0 0 50 50" xml:space="preserve">
<g>
	<path fill="#FFFFFF" d="M24.804,49.05c-13.509,0-24.5-10.99-24.5-24.5c0-13.509,10.991-24.5,24.5-24.5
		c13.51,0,24.5,10.991,24.5,24.5C49.304,38.06,38.313,49.05,24.804,49.05z"/>
	<path fill="#999999" d="M24.804,0.55c13.233,0,24,10.767,24,24s-10.767,24-24,24s-24-10.767-24-24S11.57,0.55,24.804,0.55
		 M24.804-0.45c-13.807,0-25,11.193-25,25c0,13.807,11.193,25,25,25c13.807,0,25-11.193,25-25C49.804,10.743,38.61-0.45,24.804-0.45
		L24.804-0.45z"/>
</g>
<polyline fill="#FFFFFF" stroke="#999999" stroke-miterlimit="10" points="30.783,40.601 15.46,24.253 31.262,9.441 "/>
</svg>
